<?xml version="1.0" encoding="UTF-8"?>
<!DOCTYPE svg PUBLIC "-//W3C//DTD SVG 1.1//EN" "http://www.w3.org/Graphics/SVG/1.1/DTD/svg11.dtd">
<!-- Creator: CorelDRAW -->
<svg xmlns="http://www.w3.org/2000/svg" xml:space="preserve" width="600px" height="600px" style="shape-rendering:geometricPrecision; text-rendering:geometricPrecision; image-rendering:optimizeQuality; fill-rule:evenodd; clip-rule:evenodd"
viewBox="0 0 579.368 768.508"
 xmlns:xlink="http://www.w3.org/1999/xlink">
 <defs>
  <style type="text/css">
   <![CDATA[
    .str0 {stroke:#0067AC;stroke-width:3.2154}
    .fil0 {fill:#0051E9}
   ]]>
  </style>
 </defs>
 <g id="Layer_x0020_1">
  <metadata id="CorelCorpID_0Corel-Layer"/>
  <g id="Layer_x0020_1_0">
   <path id="_118735136" class="fil0" d="M533.062 223.752c2.50011,14.8636 3.50857,31.3464 3.50857,46.9538 0,139.305 -110.604,252.575 -248.385,255.994 0,0 75.8911,-34.1153 158.513,-143.3 80.3918,-106.56 86.3638,-159.645 86.3638,-159.648l0 0z"/>
   <path id="_119044112" class="fil0" d="M508.606 33.97c-23.9642,-26.1141 -89.8575,20.7203 -89.8575,20.7203 30.1941,19.3168 55.8997,45.0048 75.6332,75.0509 0,-0.00271456 36.6792,-71.1134 14.2243,-95.7712l0 0zm25.7056 -26.2648c26.2078,21.3134 26.2078,65.649 -8.23463,157.335 -43.676,115.81 -146.781,228.504 -198.454,281.739 -58.1622,59.8073 -170.747,139.67 -217.185,111.516 -42.7028,-26.0354 -12.4938,-104.082 -9.73578,-112.331 23.4688,-70.7307 85.8684,-162.27 94.612,-223.829 9.22952,-66.8746 -12.4938,-83.7199 -30.4642,-93.0607 -10.9886,-5.76709 -64.4071,-22.33 -108.09,66.8855 -43.6923,89.187 -4.24422,186.197 -4.24422,186.197 -16.2249,-33.6891 -25.2129,-71.4745 -25.2129,-111.45 0,-141.404 113.839,-256.066 254.637,-256.066 43.6787,0 85.1179,11.1691 121.075,30.7872 0,-0.00407185 93.8655,-67.8437 131.297,-37.7216l0 0z"/>
   <polygon id="_119048576" class="fil0 str0" points="53.0304,766.901 2.58562,665.021 28.8151,665.021 64.9351,736.65 65.2825,736.65 99.1576,665.021 125.5,665.021 76.6701,766.901 "/>
   <polygon id="_119049056" class="fil0 str0" points="191.533,665.021 253.251,733.367 253.588,733.367 253.251,665.021 277.293,665.021 277.293,766.901 251.696,766.901 187.852,697.255 187.568,697.255 187.568,766.901 163.523,766.901 163.523,665.021 "/>
   <path id="_119049464" class="fil0 str0" d="M397.618 713.066c2.93444,0 5.75623,-0.194091 8.45315,-0.571416 2.69692,-0.388183 5.11695,-1.1279 7.18545,-2.21916 2.01421,-1.10618 3.68502,-2.65077 4.95272,-4.66905 1.2677,-1.99249 1.83505,-4.63647 1.83505,-7.87902 0,-3.24933 -0.567344,-5.87839 -1.83505,-7.88309 -1.2677,-2.00742 -2.93716,-3.57372 -4.95272,-4.65412 -2.07257,-1.10211 -4.48853,-1.83912 -7.18545,-2.22323 -2.69692,-0.388183 -5.52278,-0.57413 -8.45315,-0.57413l-33.9361 0.00135728 0 30.6719 33.9361 0 0 0zm6.89771 -48.0451l0.682713 0c7.00629,0.0570058 12.9349,0.984029 17.8985,2.77564 5.11017,1.87033 9.25802,4.31344 12.4218,7.35104 3.21812,3.04845 5.57707,6.53938 7.01715,10.4253 1.49437,3.91847 2.18387,7.96453 2.18387,12.1558 0,4.09763 -0.689499,8.12333 -2.18387,12.0703 -1.44008,3.94969 -3.79903,7.45148 -6.96014,10.4972 -3.22083,3.04845 -7.36868,5.50921 -12.4788,7.35511 -5.06402,1.86355 -11.222,2.7865 -18.5228,2.7865l-40.8963 -0.00135728 0 36.4607 -25.6486 0 0 -101.88 66.4864 0 0 0.00407185z"/>
   <polygon id="_119049872" class="fil0 str0" points="470.723,686.481 470.723,665.021 577.761,665.021 577.761,686.481 536.293,686.481 536.293,766.901 510.692,766.901 510.692,686.481 "/>
  </g>
 </g>
</svg>
